HIERARCHY
ROOT hip
{
  OFFSET 0 0 0
  CHANNELS 6 Xposition Yposition Zposition Zrotation Yrotation Xrotation
  JOINT abdomen
  {
    OFFSET 0 20.6881 -0.73152
    CHANNELS 3 Zrotation Xrotation Yrotation
    JOINT chest
    {
      OFFSET 0 11.7043 -0.48768
      CHANNELS 3 Zrotation Xrotation Yrotation
      JOINT neck
      {
        OFFSET 0 22.1894 -2.19456
        CHANNELS 3 Zrotation Xrotation Yrotation
        JOINT head
        {
          OFFSET -0.24384 7.07133 1.2192
          CHANNELS 3 Zrotation Xrotation Yrotation
          JOINT leftEye
          {
            OFFSET 4.14528 8.04674 8.04672
            CHANNELS 3 Zrotation Xrotation Yrotation
            End Site
            {
              OFFSET 1 0 0
            }
          }
          JOINT rightEye
          {
            OFFSET -3.6576 8.04674 8.04672
            CHANNELS 3 Zrotation Xrotation Yrotation
            End Site
            {
              OFFSET 1 0 0
            }
          }
        }
      }
      JOINT rCollar
      {
        OFFSET -2.68224 19.2634 -4.8768
        CHANNELS 3 Zrotation Xrotation Yrotation
        JOINT rShldr
        {
          OFFSET -8.77824 -1.95073 1.46304
          CHANNELS 3 Zrotation Xrotation Yrotation
          JOINT rForeArm
          {
            OFFSET -28.1742 -1.7115 0.48768
            CHANNELS 3 Zrotation Xrotation Yrotation
            JOINT rHand
            {
              OFFSET -22.5879 0.773209 7.07136
              CHANNELS 3 Zrotation Xrotation Yrotation
              JOINT rThumb1
              {
                OFFSET -1.2192 -0.487915 3.41376
                CHANNELS 3 Zrotation Xrotation Yrotation
                JOINT rThumb2
                {
                  OFFSET -3.37035 -0.52449 3.41376
                  CHANNELS 3 Zrotation Xrotation Yrotation
                  End Site
                  {
                    OFFSET -1.78271 -1.18214 1.43049
                  }
                }
              }
              JOINT rIndex1
              {
                OFFSET -7.75947 0.938293 5.60832
                CHANNELS 3 Zrotation Xrotation Yrotation
                JOINT rIndex2
                {
                  OFFSET -2.54057 -0.884171 1.56538
                  CHANNELS 3 Zrotation Xrotation Yrotation
                  End Site
                  {
                    OFFSET -1.62519 -0.234802 1.16502
                  }
                }
              }
              JOINT rMid1
              {
                OFFSET -8.24714 1.18213 3.41376
                CHANNELS 3 Zrotation Xrotation Yrotation
                JOINT rMid2
                {
                  OFFSET -3.10165 -0.590103 1.0647
                  CHANNELS 3 Zrotation Xrotation Yrotation
                  End Site
                  {
                    OFFSET -2.48547 -0.328903 0.83742
                  }
                }
              }
              JOINT rRing1
              {
                OFFSET -8.82822 0.546677 1.51678
                CHANNELS 3 Zrotation Xrotation Yrotation
                JOINT rRing2
                {
                  OFFSET -2.60934 -0.819778 -0.0198488
                  CHANNELS 3 Zrotation Xrotation Yrotation
                  End Site
                  {
                    OFFSET -2.33842 -0.294052 0.168128
                  }
                }
              }
              JOINT rPinky1
              {
                OFFSET -8.27202 -0.0477905 -0.4584
                CHANNELS 3 Zrotation Xrotation Yrotation
                JOINT rPinky2
                {
                  OFFSET -1.82734 -0.647385 -0.700984
                  CHANNELS 3 Zrotation Xrotation Yrotation
                  End Site
                  {
                    OFFSET -1.69225 -0.51767 -0.607171
                  }
                }
              }
            }
          }
        }
      }
      JOINT lCollar
      {
        OFFSET 2.68224 19.2634 -4.8768
        CHANNELS 3 Zrotation Xrotation Yrotation
        JOINT lShldr
        {
          OFFSET 8.77824 -1.95073 1.46304
          CHANNELS 3 Zrotation Xrotation Yrotation
          JOINT lForeArm
          {
            OFFSET 28.1742 -1.7115 0.48768
            CHANNELS 3 Zrotation Xrotation Yrotation
            JOINT lHand
            {
              OFFSET 22.5879 0.773209 7.07136
              CHANNELS 3 Zrotation Xrotation Yrotation
              JOINT lThumb1
              {
                OFFSET 1.2192 -0.487915 3.41376
                CHANNELS 3 Zrotation Xrotation Yrotation
                JOINT lThumb2
                {
                  OFFSET 3.37035 -0.52449 3.41376
                  CHANNELS 3 Zrotation Xrotation Yrotation
                  End Site
                  {
                    OFFSET 1.78271 -1.18214 1.43049
                  }
                }
              }
              JOINT lIndex1
              {
                OFFSET 7.75947 0.938293 5.60832
                CHANNELS 3 Zrotation Xrotation Yrotation
                JOINT lIndex2
                {
                  OFFSET 2.54057 -0.884171 1.56538
                  CHANNELS 3 Zrotation Xrotation Yrotation
                  End Site
                  {
                    OFFSET 1.62519 -0.234802 1.16502
                  }
                }
              }
              JOINT lMid1
              {
                OFFSET 8.24714 1.18213 3.41376
                CHANNELS 3 Zrotation Xrotation Yrotation
                JOINT lMid2
                {
                  OFFSET 3.10165 -0.590103 1.0647
                  CHANNELS 3 Zrotation Xrotation Yrotation
                  End Site
                  {
                    OFFSET 2.48547 -0.328903 0.83742
                  }
                }
              }
              JOINT lRing1
              {
                OFFSET 8.82822 0.546677 1.51678
                CHANNELS 3 Zrotation Xrotation Yrotation
                JOINT lRing2
                {
                  OFFSET 2.60934 -0.819778 -0.0198488
                  CHANNELS 3 Zrotation Xrotation Yrotation
                  End Site
                  {
                    OFFSET 2.33842 -0.294052 0.168128
                  }
                }
              }
              JOINT lPinky1
              {
                OFFSET 8.27202 -0.0477905 -0.4584
                CHANNELS 3 Zrotation Xrotation Yrotation
                JOINT lPinky2
                {
                  OFFSET 1.82734 -0.647385 -0.700984
                  CHANNELS 3 Zrotation Xrotation Yrotation
                  End Site
                  {
                    OFFSET 1.69225 -0.51767 -0.607171
                  }
                }
              }
            }
          }
        }
      }
    }
  }
  JOINT rButtock
  {
    OFFSET -8.77824 4.35084 1.2192
    CHANNELS 3 Zrotation Xrotation Yrotation
    JOINT rThigh
    {
      OFFSET 0 -1.70687 -2.19456
      CHANNELS 3 Zrotation Xrotation Yrotation
      JOINT rShin
      {
        OFFSET 0 -36.8199 0.73152
        CHANNELS 3 Zrotation Xrotation Yrotation
        JOINT rFoot
        {
          OFFSET 0.73152 -45.1104 -5.12064
          CHANNELS 3 Zrotation Xrotation Yrotation
          End Site
          {
            OFFSET -1.1221 -3.69964 12.103
          }
        }
      }
    }
  }
  JOINT lButtock
  {
    OFFSET 8.77824 4.35084 1.2192
    CHANNELS 3 Zrotation Xrotation Yrotation
    JOINT lThigh
    {
      OFFSET 0 -1.70687 -2.19456
      CHANNELS 3 Zrotation Xrotation Yrotation
      JOINT lShin
      {
        OFFSET 0 -36.8199 0.73152
        CHANNELS 3 Zrotation Xrotation Yrotation
        JOINT lFoot
        {
          OFFSET -0.73152 -45.1104 -5.12064
          CHANNELS 3 Zrotation Xrotation Yrotation
          End Site
          {
            OFFSET 1.1221 -3.69964 12.103
          }
        }
      }
    }
  }
}
MOTION
Frames:	8
Frame Time:	0.03333
15.001700000000001 78.7727 17.1461 -3.234636 18.852899 1.437215 -6.522063 -0.533538 -0.333918 6.143238 7.273678 -1.635647 7.692389 3.421713 59.531497 -23.854906 -0.566327 -77.298564 113.946715 -27.683817 41.516985 14.706901 -0.796446 -6.165691 -150.320263 -7.802392 150.412804 -84.054518 44.81629 47.990598 22.1901 -64.261271 -72.983626 179.160958 4.088386 139.501689 -165.324967 6.487824 78.862022 -136.43779 0.008553 62.162229 -175.035807 -67.776872 121.359468 173.63216 -62.027213 113.8584 94.363572 -67.956911 75.99801 6.003074 -55.879992 19.831456 -15.5209 24.013903 7.071956 -129.185708 37.660045 137.490602 4.348639 18.654688 -6.919965 -35.626702 -62.414817 34.506978 0.832978 29.008688 -2.298831 -45.769873 0.036036 -60.491557 165.093886 4.362297 -53.252065 -171.405526 -37.487022 -134.852263 165.455067 2.759661 -78.505844 72.335122 -13.20612 -20.700731 20.953382 16.138314 -31.235984 41.696197 62.848773 -33.864597 4.064731 -0.556368 -12.661448 -3.463304 48.505074 -2.120865 15.748274 -81.198709 62.003472 88.328224 40.614345 -87.159513 133.955903 33.599111 159.03903 170.420578 52.664169 50.819031 71.72447 86.794549 106.714202 -173.805847 69.240206 -26.052101 -20.081739 33.442931 100.250932 -103.613731 61.475193 24.940472 -159.112434 49.085962 -26.793125 -174.665496 35.429664 170.84978 -1.690931 -37.153678 141.401911 -63.660018 -64.99109 35.486117
14.7082 78.9871 18.3175 -3.806522 20.245769 1.212213 -4.247412 -4.345825 -103.595977 -11.535311 0.917811 103.503564 11.358158 4.818037 78.495554 -26.796683 12.218313 -96.442227 68.520849 26.967062 38.786047 14.846145 -1.547278 -11.834402 -9.305504 32.928911 21.564827 -50.275117 70.660306 117.301343 -120.818628 -65.076886 -74.406341 5.727777 -19.517216 -3.454399 103.660477 -37.548183 58.454042 -43.904349 -2.002636 -13.807626 35.228587 -63.751334 -7.868955 174.889563 -69.654589 105.432333 140.032656 -57.739262 112.983304 -70.851189 34.372273 39.606923 -33.128987 59.823256 27.773028 -6.359606 4.664156 21.099423 -45.610108 -25.309948 -35.321457 -139.346673 -25.361975 154.477431 149.238468 23.324322 -157.509571 -137.674927 -1.15747 177.707495 -155.645361 -10.044431 -42.703788 173.880735 3.828151 -135.86439 -177.996435 -12.0224 -80.522947 149.290692 10.804258 -66.451679 10.835251 7.421736 -25.718755 144.744153 6.280087 -126.822426 89.255235 50.654942 -71.501433 -60.384547 -44.616949 -32.526827 -30.388248 -0.673181 -6.287936 34.82252 30.347562 1.722316 2.364463 -42.537095 11.51157 -143.926927 -15.773003 -138.948134 23.288369 87.788032 157.126185 -179.010735 69.143213 175.55835 6.995092 -43.652678 -55.348583 117.239515 68.107302 163.654689 -80.050679 15.876555 -14.530747 93.825136 2.25649 -90.150831 -35.785262 -8.433371 152.432059 -87.79156 10.057984 16.217505
15.6573 79.01989999999999 17.994699999999998 -2.441948 19.791533 1.163822 -11.491318 -3.255599 105.607715 7.263074 -13.226195 -100.483819 -8.008074 9.964808 -114.731645 26.501708 9.678087 86.165101 89.284909 4.041722 4.09244 17.832913 -3.378739 -21.293435 -141.779364 19.192531 149.619222 79.527705 -50.231085 100.641145 157.016532 49.716441 118.085977 -179.012093 19.226201 147.084657 -15.658665 -0.958177 3.997529 -54.191585 40.145318 43.485665 -163.148588 -41.427855 135.401053 -0.173789 9.333271 -16.909728 -151.040369 32.430454 121.002837 -148.463869 -17.586474 121.989639 -27.202781 4.214802 -4.994246 97.623013 -76.448437 57.473496 -28.408468 36.716234 -9.841336 -39.568697 32.077003 64.599621 159.191481 -5.883311 -160.212153 -136.578647 2.90543 155.613877 6.830854 4.706384 -108.354986 5.623509 -21.630069 -2.630791 65.319627 54.393219 -45.859223 120.266548 14.269947 -80.850358 13.320961 33.750544 -7.580019 76.775008 55.716635 -63.394061 -118.523742 -72.796127 -102.338046 15.657365 49.566877 33.501289 123.175624 -13.826668 155.686874 114.317558 -29.293636 171.086841 142.031611 -8.422548 127.039297 24.699153 -18.203193 125.69793 58.812124 62.673625 111.980363 -131.661997 75.331223 63.661484 37.428622 5.449321 -87.437239 -47.273215 -3.2059 5.518636 -94.807688 10.014852 -26.667333 106.256895 19.003685 45.692219 27.701288 35.825018 155.412723 151.172606 22.892711 -179.334264
16.5192 77.8068 17.2561 -2.913452 20.002688 0.548339 -4.619652 -0.776559 -80.478446 -7.762048 6.96851 85.015199 -4.213325 9.014998 -114.747516 29.841817 2.646224 96.570258 70.637792 -6.720241 -9.473946 21.662213 -9.439105 -46.681753 -118.222337 49.235661 128.070819 70.798431 -37.451209 72.283201 178.060024 35.795092 101.591121 174.933028 5.516632 147.111177 -90.825511 44.247228 45.918979 21.628456 -27.723417 9.95487 -131.843707 35.919701 102.926395 168.018001 -18.896868 92.833782 -3.773456 -28.827261 3.28568 -7.45219 -12.996675 -21.94376 -87.990305 -67.345719 -92.525533 -46.044732 -84.868178 -86.513412 156.156391 38.438208 -157.008768 -158.740187 -23.236275 -125.433638 48.185087 -87.359463 71.609396 -87.029182 29.582393 47.859021 104.44756 -46.385216 -87.155424 -176.697058 -47.665474 -157.831726 148.74906 -3.797324 -112.139248 18.868995 36.400423 -11.179911 169.499981 -28.801909 -118.476499 160.733911 20.868104 -74.89844 -86.687901 -74.063696 -63.987254 173.197943 -38.086171 174.230619 50.576238 77.061274 -84.228596 153.427522 -19.390066 155.879268 141.946927 -1.65675 130.556212 -39.356742 -21.559293 56.570018 7.941777 -19.812534 -6.996862 -12.602033 -3.541554 -1.045188 -22.877888 38.677889 -54.598002 148.321545 19.101929 -56.661997 27.45602 48.655744 49.719948 -57.876433 -21.26379 -107.873862 -40.572644 23.386745 -76.223361 82.815078 -12.88433 177.920185
16.9905 76.24600000000001 16.5153 -3.224509 20.66537 0.4597 -6.064209 2.248199 0.0 8.523073 5.49649 2.914874 15.840225 8.761535 119.689843 -10.354202 39.960634 -121.249085 59.162938 -4.239143 -7.460713 17.404676 -10.891622 -63.832962 5.936032 0.394634 6.832094 50.28901 10.316281 -8.855879 -84.874505 27.059778 77.549374 71.203182 -65.114687 55.555199 -169.117137 -2.161635 96.142891 -168.408336 -19.911808 88.444359 -4.984651 -24.728585 -6.574884 -130.300308 12.697516 138.213675 93.731797 -75.453132 78.38006 -4.924959 -27.440398 4.496595 -2.611475 -1.589408 -1.240391 90.355698 -82.082931 89.827202 174.262771 46.01781 -177.068218 -12.838367 6.919302 10.210414 78.489046 69.034578 -88.269937 -99.727754 -27.241992 -131.702229 104.0188 -38.560009 -73.735975 -178.338066 -65.325153 -161.837854 14.68847 48.185341 -1.220437 111.08979 37.927329 -2.672383 56.815148 29.333091 -40.236366 65.268894 74.478534 -111.754401 162.799515 -9.271071 -134.385718 74.169418 44.475044 -38.80294 127.042916 -0.409249 -176.751024 25.193096 87.978234 -53.651528 2.678965 -8.230559 8.883021 104.217107 28.434716 -134.60644 -86.385699 70.293166 -58.354743 112.387818 39.879648 0.0 -40.362421 15.218955 4.899668 150.44519 -2.042226 -44.312952 56.972128 66.610615 37.626469 -85.38768 -12.079016 -165.644242 -43.479773 -13.039441 3.031169 5.719342 4.763455 102.701403
17.0797 74.9504 16.0708 -3.313394 21.621851 0.317552 -5.843972 3.42225 0.0 8.666199 3.898559 2.393231 -1.954109 6.559475 -66.862641 17.670281 -19.346935 70.228032 50.884053 -3.171983 -6.661742 14.119666 -9.559372 -68.05149 -144.175184 17.610365 150.372987 -101.905272 46.512052 79.366825 -176.755405 52.356089 -131.962502 3.173616 7.447625 -3.551596 -16.365315 13.432291 1.577506 -40.731637 25.403255 32.345869 12.85099 -51.792236 1.74807 -101.72488 -67.533207 -162.34418 1.215613 -29.332556 4.606689 -6.700628 -51.736838 -12.912006 -73.536512 -72.853634 -92.857171 8.416195 26.67497 32.508482 -146.024279 -72.63228 -99.119291 33.098302 37.560003 -24.991251 -5.474548 18.748629 -3.482822 124.181218 -8.521536 -109.94832 -5.857816 -1.101977 143.422171 163.584731 -0.676547 -149.196483 167.806499 -39.641839 -107.172903 -68.678801 44.402428 42.622251 28.833384 16.508279 -22.400121 162.180141 67.424519 160.010265 148.619179 14.118091 -129.38677 11.903065 -16.449653 -16.515905 125.626855 5.4832 -176.448237 172.617512 65.461535 160.98011 155.474207 36.857094 138.581821 104.292587 -5.807635 59.80573 90.30083 38.557915 43.714092 -111.383819 29.661043 -0.0 29.702458 39.136721 91.299388 77.563657 58.722418 -166.107637 -16.192012 21.90282 37.897806 5.212921 -47.712018 180.0 -20.588147 -35.495075 128.944135 -39.657781 -27.800937 32.893027
16.9013 73.934 15.9499 -3.332763 22.387613 0.189425 -2.84694 1.793354 -90.0248 -5.120419 4.838382 93.066932 20.266751 9.363355 94.273114 -24.54319 32.430089 -83.341253 45.005174 -3.153719 -7.603522 10.600657 -6.841181 -65.585587 -152.10735 -7.04155 159.09573 127.552065 -47.143363 151.041603 172.993462 43.211517 101.936899 172.26517 2.157726 141.807862 -165.905611 -0.440091 86.363682 139.294966 -40.183119 76.330358 -156.534724 13.140431 107.035935 -4.814618 -24.431329 28.160758 5.103149 -30.081371 5.067054 -167.847702 39.757841 138.250147 5.557039 1.812329 -0.05214 179.855632 24.754805 155.025564 -119.044994 -75.840546 -71.930922 -85.648572 -12.942362 -79.997679 147.169959 -3.630819 -161.827739 60.976332 -18.774287 49.070409 -119.416634 -53.632151 119.217204 36.485203 31.542885 -20.596354 154.092868 -7.185023 -110.048286 -17.059969 11.729604 97.988045 3.859389 -4.864244 -8.92473 14.731113 -38.99057 95.590051 156.982066 3.266099 -135.317414 -156.393598 -26.075201 -139.496476 -21.303191 -0.239327 3.004101 110.293812 53.384934 -109.473126 163.005867 41.567185 136.227648 90.474652 -1.869831 42.746842 -123.003163 59.730746 -29.562031 129.856262 35.155504 -0.0 -31.957393 29.149519 -19.276194 -90.501107 -70.794218 13.106893 51.169634 68.456152 41.334702 -86.430747 -11.581134 14.333274 39.210203 4.1381 -119.115205 148.460645 -16.454413 -59.681956
16.7985 73.2222 16.002299999999998 -3.439829 23.312456 -0.123499 -4.00477 4.663452 0.159544 4.56541 1.941337 4.394471 12.022271 0.777618 8.846234 -23.286474 -10.87666 -5.914476 36.363268 -3.8534 -11.696491 7.116537 -4.487921 -64.433659 6.475256 -11.150411 -0.816317 56.12879 30.468904 -18.308078 179.834315 2.195119 94.161861 171.610702 -3.75134 142.632526 -81.271794 33.072757 41.1803 12.694035 -1.210764 19.698481 -21.153739 -9.851687 -3.270889 25.01869 72.682604 0.230753 0.216911 -14.128517 4.999604 -178.115633 -0.825042 150.962912 -136.206404 -4.490578 -175.898679 -112.006564 -19.55603 -165.86344 -50.590941 37.9108 35.176435 46.762029 -30.988686 33.216383 0.126579 21.702453 -8.955883 -169.222506 -20.824731 -96.178731 6.55024 -64.684404 157.319698 164.903957 -5.582773 -150.684502 20.824969 48.303309 0.584115 136.561943 50.006757 16.777979 170.387579 -37.515993 -115.5065 -8.985766 -34.193803 -36.196571 88.553559 58.990118 -74.952912 89.337278 26.025445 -71.370155 -26.047411 11.03333 4.430601 179.392577 -2.975444 -147.633822 103.550799 -36.318048 95.95761 -49.778673 -33.391392 28.377281 -0.596181 10.867873 0.865233 -6.357607 -33.126857 180.0 7.242525 -44.760131 103.231803 143.43871 24.028439 -53.986992 -70.313609 -3.012556 -0.0 84.389876 -13.428943 -153.174693 -30.107858 -36.642665 -130.106047 -6.442145 13.415935 -75.718424
